<?xml version="1.0" standalone="no"?>
<!DOCTYPE svg PUBLIC "-//W3C//DTD SVG 20010904//EN"
 "http://www.w3.org/TR/2001/REC-SVG-20010904/DTD/svg10.dtd">
<svg version="1.0" xmlns="http://www.w3.org/2000/svg"
 width="6771.000000pt" height="2607.000000pt" viewBox="0 0 6771.000000 2607.000000"
 preserveAspectRatio="xMidYMid meet">

<g transform="translate(0.000000,2607.000000) scale(0.100000,-0.100000)"
fill="#000000" stroke="none">
<path d="M3514 18311 c-2 -2 -4 -147 -4 -321 l0 -316 46 -22 c25 -13 96 -41
157 -63 284 -104 471 -239 608 -437 58 -83 150 -271 203 -415 l36 -97 0 -4880
0 -4880 -36 -97 c-91 -246 -215 -464 -333 -586 -133 -138 -383 -277 -636 -354
l-60 -18 -3 -316 -2 -316 3399 -6 c1869 -4 4958 -4 6865 0 l3466 6 0 316 0
316 -102 33 c-111 35 -309 127 -404 187 -93 59 -185 138 -241 208 -101 124
-205 324 -289 555 l-34 93 0 4869 0 4869 34 93 c68 188 175 404 252 509 92
127 312 265 564 353 41 15 103 38 138 53 l62 26 0 322 0 322 -967 -4 c-533 -3
-1402 -8 -1932 -12 l-964 -6 -1486 -2787 c-817 -1533 -1488 -2788 -1491 -2788
-3 0 -679 1254 -1502 2788 l-1496 2787 -1149 7 c-1762 10 -2694 13 -2699 9z
m4836 -3169 l0 -249 -77 -22 c-43 -13 -109 -36 -148 -52 -89 -38 -225 -119
-225 -135 0 -7 13 -48 29 -91 17 -43 118 -319 226 -613 108 -294 302 -821 430
-1170 254 -692 654 -1784 813 -2220 56 -151 104 -283 107 -293 7 -16 -48 -17
-1110 -15 l-1118 3 -54 150 c-141 385 -1036 2871 -1190 3305 -37 102 -70 187
-75 191 -4 3 -21 53 -38 112 -100 356 -234 565 -442 689 -82 49 -219 109 -316
138 l-72 22 0 249 0 249 1630 0 1630 0 0 -248z m7110 -1 l0 -248 -92 -33
c-326 -113 -507 -263 -628 -524 -34 -71 -97 -251 -146 -416 -18 -62 -143 -419
-765 -2183 l-430 -1217 -10 -1733 c-5 -952 -13 -1784 -18 -1847 -7 -96 -14
-131 -45 -215 -89 -237 -202 -437 -311 -548 -120 -122 -319 -235 -535 -303
-155 -48 -160 -50 -160 -74 0 -27 -5 -26 -75 16 -142 86 -274 221 -332 339
l-24 50 516 1475 c579 1653 895 2556 902 2583 5 16 -53 17 -1111 17 -614 0
-1116 3 -1116 8 0 11 497 1383 1279 3532 291 799 311 856 294 868 -81 61 -280
156 -391 187 l-62 18 0 248 0 249 1630 0 1630 0 0 -249z m-8073 -5166 c36 -99
113 -317 173 -485 60 -168 347 -973 639 -1789 292 -817 531 -1492 531 -1500 0
-27 -77 -145 -140 -214 -34 -37 -92 -89 -127 -114 l-65 -46 -52 13 c-138 34
-389 151 -514 240 -199 140 -334 346 -445 680 l-45 135 -11 1170 c-6 644 -13
1384 -16 1645 -3 261 -2 468 2 460 3 -8 35 -96 70 -195z"/>
<path d="M22400 13084 c-391 -72 -689 -259 -890 -560 -158 -237 -238 -477
-260 -780 -48 -671 235 -1226 755 -1484 258 -128 525 -169 781 -119 126 24
199 50 345 123 125 63 177 96 279 183 222 187 377 453 440 756 45 216 51 521
16 722 -69 383 -260 705 -546 915 -109 80 -296 171 -435 211 -102 29 -123 32
-285 35 -96 1 -186 0 -200 -2z m285 -579 c190 -40 352 -171 448 -360 182 -361
143 -910 -86 -1201 -152 -193 -396 -284 -612 -229 -116 30 -203 81 -295 174
-170 171 -250 401 -250 717 0 222 34 379 117 546 37 75 63 109 127 173 161
159 352 222 551 180z"/>
<path d="M42604 13080 c-322 -34 -584 -153 -805 -367 -242 -234 -388 -538
-429 -895 -18 -154 -8 -462 20 -593 109 -513 413 -879 870 -1048 150 -56 271
-78 466 -84 316 -10 559 31 816 139 l78 33 0 353 0 353 -71 -3 -72 -3 -20 -53
c-26 -68 -84 -126 -152 -151 -234 -88 -561 -120 -738 -72 -147 39 -287 130
-373 244 -259 342 -252 1008 14 1331 124 149 296 234 514 252 164 13 471 -34
596 -91 76 -35 106 -65 138 -141 l27 -64 69 0 68 0 0 345 0 345 -51 26 c-223
113 -653 177 -965 144z"/>
<path d="M18240 12996 l0 -74 48 -16 c69 -23 120 -70 153 -140 l29 -61 0
-1087 c0 -1199 4 -1117 -62 -1215 -21 -32 -47 -51 -103 -79 l-75 -37 0 -69 0
-68 545 0 545 0 0 73 0 72 -50 18 c-70 25 -132 87 -158 159 -21 55 -22 79 -28
660 -4 427 -3 599 5 588 6 -8 158 -279 338 -602 181 -323 330 -588 333 -588 3
0 138 240 300 532 162 292 314 566 338 607 l43 76 -6 -610 c-6 -698 -3 -673
-90 -761 -35 -35 -64 -55 -98 -64 l-47 -14 0 -73 0 -73 545 0 546 0 -3 71 -3
71 -54 20 c-71 27 -132 88 -160 162 -21 57 -21 59 -21 1135 l0 1079 22 58 c28
73 80 126 149 152 l54 20 3 77 3 78 -152 -6 c-84 -4 -277 -7 -429 -7 l-277 0
-329 -615 c-180 -338 -332 -611 -336 -607 -4 4 -153 279 -331 612 l-324 605
-64 6 c-35 4 -229 7 -431 8 l-368 1 0 -74z"/>
<path d="M23850 12991 l0 -69 51 -17 c70 -24 126 -77 161 -152 l28 -63 0
-1083 0 -1084 -36 -72 c-39 -79 -79 -115 -158 -145 l-46 -18 0 -69 0 -69 540
0 540 0 0 69 0 69 -57 23 c-76 31 -121 72 -155 144 l-28 60 0 343 0 342 228 0
229 0 224 -402 c122 -222 231 -417 241 -435 l19 -31 -51 -23 -50 -23 0 -66 0
-67 368 -6 c202 -3 395 -3 430 0 l62 6 0 67 0 66 -54 23 c-29 12 -63 32 -74
44 -18 19 -542 993 -542 1007 0 3 26 23 57 45 136 96 263 246 328 389 57 123
70 205 69 421 0 163 -4 201 -22 269 -89 322 -318 501 -715 560 -87 13 -228 16
-846 16 l-741 0 0 -69z m1428 -465 c173 -38 245 -112 273 -283 9 -54 9 -90 0
-149 -14 -96 -38 -150 -90 -207 -84 -91 -205 -117 -542 -117 l-229 0 0 391 0
392 258 -6 c179 -3 279 -10 330 -21z"/>
<path d="M27450 12991 l0 -68 65 -32 c58 -29 65 -35 59 -54 -4 -12 -199 -561
-434 -1220 -286 -800 -437 -1209 -454 -1232 -17 -22 -53 -47 -96 -67 l-70 -33
0 -72 0 -73 515 0 515 0 0 73 0 72 -51 18 c-50 18 -121 73 -140 109 -8 15 6
63 62 219 l72 199 439 -2 440 -3 69 -199 68 -199 -18 -26 c-32 -44 -64 -69
-124 -95 l-57 -26 0 -70 0 -70 515 0 515 0 0 73 0 72 -47 17 c-91 33 -142 92
-182 212 -10 28 -217 612 -461 1299 l-444 1247 -378 0 -378 0 0 -69z m598
-1257 c62 -171 112 -314 112 -318 0 -3 -103 -6 -230 -6 -126 0 -230 3 -230 8
0 20 226 640 231 634 3 -4 56 -147 117 -318z"/>
<path d="M29470 12986 l0 -73 47 -18 c68 -26 138 -95 163 -161 20 -54 20 -74
20 -1139 l0 -1084 -37 -72 c-40 -77 -77 -110 -158 -141 l-40 -16 -3 -71 -3
-71 541 0 540 0 0 75 c0 61 -3 75 -15 75 -27 0 -109 47 -142 82 -17 18 -43 58
-57 88 l-26 55 0 1077 c0 1075 0 1077 21 1135 28 74 97 144 168 170 l51 18 0
72 0 73 -535 0 -535 0 0 -74z"/>
<path d="M31490 13049 c-421 -47 -730 -283 -832 -636 -30 -102 -32 -322 -5
-423 31 -117 79 -200 161 -277 128 -123 286 -201 708 -353 315 -113 386 -148
459 -220 80 -79 103 -128 104 -215 0 -59 -4 -78 -27 -117 -16 -25 -40 -56 -54
-67 -117 -92 -468 -107 -759 -31 -93 24 -278 113 -350 168 -38 28 -55 50 -70
90 l-20 52 -72 0 -73 0 0 -435 0 -435 71 0 71 0 15 40 c9 22 21 38 27 36 39
-17 213 -68 276 -81 202 -42 559 -58 765 -35 284 33 487 120 640 274 103 103
154 202 186 356 27 135 30 326 5 420 -58 223 -223 417 -454 534 -70 35 -548
215 -682 256 -191 58 -299 120 -337 193 -23 45 -22 134 3 182 59 113 237 174
479 162 168 -8 311 -43 532 -128 113 -44 148 -74 178 -153 l18 -46 68 0 69 0
0 420 0 420 -69 0 -69 0 -12 -35 c-6 -19 -16 -37 -21 -41 -5 -3 -34 4 -64 15
-228 85 -630 137 -865 110z"/>
<path d="M34320 12989 l0 -75 38 -13 c104 -36 149 -89 202 -238 37 -107 788
-2207 797 -2230 9 -22 -86 -110 -143 -134 l-54 -23 0 -68 0 -68 650 0 650 0 0
69 0 69 -34 12 c-50 16 -118 65 -143 102 l-22 33 373 1060 c205 583 390 1112
411 1175 34 103 43 119 89 165 30 29 69 57 96 66 l45 16 3 71 3 72 -466 0
-465 0 0 -68 0 -68 65 -28 c36 -15 65 -33 65 -40 0 -14 -661 -1828 -670 -1839
-4 -4 -160 410 -347 920 -380 1034 -354 937 -260 968 l47 17 0 69 0 69 -157 0
c-87 0 -296 3 -465 7 l-308 6 0 -74z"/>
<path d="M37410 12980 l0 -70 53 -24 c75 -33 116 -72 148 -141 l29 -60 0
-1091 0 -1091 -36 -73 c-39 -77 -87 -118 -166 -142 l-38 -11 0 -67 0 -67 158
-6 c86 -4 329 -7 540 -7 l382 0 0 73 0 73 -49 18 c-67 24 -121 73 -156 142
l-30 59 -3 1082 -2 1082 21 57 c28 76 84 135 159 168 l60 27 0 70 0 69 -535 0
-535 0 0 -70z"/>
<path d="M38610 12981 l0 -70 76 -36 c62 -30 81 -45 105 -83 16 -26 34 -63 40
-82 6 -23 9 -412 7 -1130 l-3 -1095 -29 -58 c-32 -65 -81 -107 -158 -135 l-48
-17 0 -72 0 -73 540 0 540 0 0 73 0 74 -37 11 c-89 27 -147 84 -184 181 -18
49 -19 81 -19 688 0 621 0 637 19 618 10 -11 285 -382 611 -825 326 -443 594
-806 595 -808 1 -1 165 -5 363 -9 l362 -6 0 74 0 74 -47 17 c-70 25 -121 72
-154 142 l-29 61 0 1082 c0 1078 0 1082 21 1139 34 90 106 157 192 178 26 6
27 8 27 81 l0 75 -540 0 -540 0 0 -73 0 -73 58 -19 c74 -26 132 -83 161 -159
21 -55 21 -70 21 -628 l0 -570 -572 761 -573 761 -402 0 -403 0 0 -69z"/>
<path d="M43740 12975 c0 -53 4 -75 13 -75 25 0 118 -50 143 -77 15 -15 38
-53 52 -83 l25 -55 -2 -1094 c-2 -1075 -3 -1095 -23 -1149 -26 -69 -81 -124
-149 -150 l-54 -20 -3 -71 -3 -71 986 0 985 0 0 410 0 410 -73 0 -74 0 -12
-42 c-25 -83 -76 -137 -162 -169 -45 -17 -81 -19 -424 -19 l-375 0 0 320 0
320 255 0 c247 0 256 -1 308 -24 81 -35 133 -87 158 -157 l22 -59 67 0 67 0 6
152 c4 83 7 319 7 525 l0 373 -73 0 -73 0 -23 -55 c-29 -71 -86 -127 -157
-153 -52 -20 -74 -22 -310 -22 l-254 0 0 260 0 260 363 0 c390 0 418 -3 490
-52 49 -33 75 -68 97 -131 l18 -52 71 -3 71 -3 0 416 0 415 -980 0 -980 0 0
-75z"/>
<path d="M45842 12975 l3 -77 40 -17 c85 -34 113 -59 150 -134 l35 -72 -2
-1090 -3 -1090 -31 -66 c-35 -73 -75 -110 -151 -139 l-48 -18 -3 -71 -3 -71
536 0 535 0 0 69 0 68 -43 17 c-76 29 -124 72 -157 141 l-30 63 2 648 3 647
610 -826 610 -827 363 0 362 0 0 69 0 69 -49 17 c-66 22 -125 75 -156 141
l-26 55 1 1092 c0 1231 -5 1146 78 1238 33 37 57 53 98 66 l54 17 0 73 0 73
-535 0 -535 0 0 -73 0 -73 45 -13 c75 -22 123 -64 158 -139 l32 -67 3 -574 c2
-479 0 -572 -11 -563 -7 6 -265 347 -573 756 l-559 745 -350 1 c-192 0 -374 3
-403 7 l-53 6 3 -78z"/>
<path d="M48740 12630 l0 -410 75 0 c56 0 75 3 75 13 0 34 62 136 98 160 89
62 115 67 343 67 l209 0 -2 -992 -3 -993 -29 -58 c-32 -65 -81 -107 -158 -135
l-48 -17 0 -72 0 -73 540 0 540 0 0 73 0 73 -49 18 c-67 24 -121 73 -156 142
l-30 59 0 985 0 985 213 3 213 2 63 -30 c76 -36 128 -91 153 -159 l18 -51 72
0 73 0 0 410 0 410 -1105 0 -1105 0 0 -410z"/>
</g>
</svg>
